<?xml version="1.0" encoding="UTF-8" standalone="no"?>
<!DOCTYPE svg PUBLIC "-//W3C//DTD SVG 1.1//EN"
 "http://www.w3.org/Graphics/SVG/1.1/DTD/svg11.dtd">
<!-- Generated by graphviz version 2.43.0 (0)
 -->
<!-- Title: G Pages: 1 -->
<svg width="861pt" height="638pt"
 viewBox="0.00 0.00 860.82 637.69" xmlns="http://www.w3.org/2000/svg" xmlns:xlink="http://www.w3.org/1999/xlink">
<g id="graph0" class="graph" transform="scale(1 1) rotate(0) translate(4 633.69)">
<title>G</title><style>.edge>path:hover{stroke-width:8}</style>
<polygon fill="white" stroke="transparent" points="-4,4 -4,-633.69 856.82,-633.69 856.82,4 -4,4"/>
<!-- spectree -->
<g id="node1" class="node">
<title>spectree</title><style>.edge>path:hover{stroke-width:8}</style>
<polygon fill="blue" stroke="black" points="106.34,-36 47.34,-36 47.34,0 106.34,0 106.34,-36"/>
<text text-anchor="middle" x="76.84" y="-15.5" font-family="Helvetica,sans-Serif" font-size="10.00" fill="white">spectree</text>
</g>
<!-- spectree__pydantic -->
<g id="node2" class="node">
<title>spectree__pydantic</title><style>.edge>path:hover{stroke-width:8}</style>
<ellipse fill="#f91010" stroke="black" cx="363.84" cy="-608.48" rx="45.01" ry="21.43"/>
<text text-anchor="middle" x="363.84" y="-611.48" font-family="Helvetica,sans-Serif" font-size="10.00" fill="#ffffff">spectree.</text>
<text text-anchor="middle" x="363.84" y="-600.48" font-family="Helvetica,sans-Serif" font-size="10.00" fill="#ffffff">_pydantic</text>
</g>
<!-- spectree__types -->
<g id="node3" class="node">
<title>spectree__types</title><style>.edge>path:hover{stroke-width:8}</style>
<ellipse fill="#f90606" stroke="black" cx="363.84" cy="-530.05" rx="43.68" ry="21.43"/>
<text text-anchor="middle" x="363.84" y="-533.05" font-family="Helvetica,sans-Serif" font-size="10.00" fill="#ffffff">spectree.</text>
<text text-anchor="middle" x="363.84" y="-522.05" font-family="Helvetica,sans-Serif" font-size="10.00" fill="#ffffff">_types</text>
</g>
<!-- spectree__pydantic&#45;&gt;spectree__types -->
<g id="edge1" class="edge">
<title>spectree__pydantic&#45;&gt;spectree__types</title><style>.edge>path:hover{stroke-width:8}</style>
<path fill="none" stroke="black" d="M363.84,-586.99C363.84,-579.14 363.84,-569.99 363.84,-561.4"/>
<polygon fill="#f91010" stroke="black" points="367.34,-561.32 363.84,-551.32 360.34,-561.32 367.34,-561.32"/>
</g>
<!-- spectree_config -->
<g id="node4" class="node">
<title>spectree_config</title><style>.edge>path:hover{stroke-width:8}</style>
<ellipse fill="#bc2f2f" stroke="black" cx="263.84" cy="-373.2" rx="43.68" ry="21.43"/>
<text text-anchor="middle" x="263.84" y="-376.2" font-family="Helvetica,sans-Serif" font-size="10.00" fill="#ffffff">spectree.</text>
<text text-anchor="middle" x="263.84" y="-365.2" font-family="Helvetica,sans-Serif" font-size="10.00" fill="#ffffff">config</text>
</g>
<!-- spectree__pydantic&#45;&gt;spectree_config -->
<g id="edge2" class="edge">
<title>spectree__pydantic&#45;&gt;spectree_config</title><style>.edge>path:hover{stroke-width:8}</style>
<path fill="none" stroke="black" d="M229.84,-529.05C217.51,-485.82 234.75,-434.72 248.85,-403.39"/>
<polygon fill="#f91010" stroke="black" points="252.2,-404.49 253.28,-393.95 245.86,-401.51 252.2,-404.49"/>
</g>
<!-- spectree_models -->
<g id="node5" class="node">
<title>spectree_models</title><style>.edge>path:hover{stroke-width:8}</style>
<ellipse fill="#d92626" stroke="black" cx="43.84" cy="-451.62" rx="43.68" ry="21.43"/>
<text text-anchor="middle" x="43.84" y="-454.62" font-family="Helvetica,sans-Serif" font-size="10.00" fill="#ffffff">spectree.</text>
<text text-anchor="middle" x="43.84" y="-443.62" font-family="Helvetica,sans-Serif" font-size="10.00" fill="#ffffff">models</text>
</g>
<!-- spectree__pydantic&#45;&gt;spectree_models -->
<g id="edge3" class="edge">
<title>spectree__pydantic&#45;&gt;spectree_models</title><style>.edge>path:hover{stroke-width:8}</style>
<path fill="none" stroke="black" d="M322.36,-599.63C287.35,-590.31 241.15,-570.71 229.84,-531.05"/>
<path fill="none" stroke="black" d="M229.84,-529.05C227.75,-521.7 141.6,-488.69 87.3,-468.53"/>
<polygon fill="#f91010" stroke="black" points="88.48,-465.24 77.88,-465.05 86.05,-471.8 88.48,-465.24"/>
</g>
<!-- spectree_plugins_base -->
<g id="node8" class="node">
<title>spectree_plugins_base</title><style>.edge>path:hover{stroke-width:8}</style>
<polygon fill="blue" stroke="black" points="518.84,-278.98 456.84,-278.98 456.84,-237.98 518.84,-237.98 518.84,-278.98"/>
<text text-anchor="middle" x="487.84" y="-266.98" font-family="Helvetica,sans-Serif" font-size="10.00" fill="white">spectree.</text>
<text text-anchor="middle" x="487.84" y="-255.98" font-family="Helvetica,sans-Serif" font-size="10.00" fill="white">plugins.</text>
<text text-anchor="middle" x="487.84" y="-244.98" font-family="Helvetica,sans-Serif" font-size="10.00" fill="white">base</text>
</g>
<!-- spectree__pydantic&#45;&gt;spectree_plugins_base -->
<g id="edge4" class="edge">
<title>spectree__pydantic&#45;&gt;spectree_plugins_base</title><style>.edge>path:hover{stroke-width:8}</style>
<path fill="none" stroke="black" d="M669.84,-450.62C670.32,-416.6 623.12,-338.82 598.84,-314.98 579.2,-295.7 551.52,-281.84 528.71,-272.8"/>
<polygon fill="#f91010" stroke="black" points="529.87,-269.49 519.28,-269.21 527.38,-276.04 529.87,-269.49"/>
</g>
<!-- spectree_plugins_falcon_plugin -->
<g id="node9" class="node">
<title>spectree_plugins_falcon_plugin</title><style>.edge>path:hover{stroke-width:8}</style>
<ellipse fill="#8f3d3d" stroke="black" cx="794.84" cy="-172.99" rx="57.97" ry="28.98"/>
<text text-anchor="middle" x="794.84" y="-181.49" font-family="Helvetica,sans-Serif" font-size="10.00" fill="#ffffff">spectree.</text>
<text text-anchor="middle" x="794.84" y="-170.49" font-family="Helvetica,sans-Serif" font-size="10.00" fill="#ffffff">plugins.</text>
<text text-anchor="middle" x="794.84" y="-159.49" font-family="Helvetica,sans-Serif" font-size="10.00" fill="#ffffff">falcon_plugin</text>
</g>
<!-- spectree__pydantic&#45;&gt;spectree_plugins_falcon_plugin -->
<g id="edge5" class="edge">
<title>spectree__pydantic&#45;&gt;spectree_plugins_falcon_plugin</title><style>.edge>path:hover{stroke-width:8}</style>
<path fill="none" stroke="black" d="M669.84,-450.62C670.75,-412.7 688.56,-406.87 707.84,-374.2"/>
</g>
<!-- spectree_plugins_flask_plugin -->
<g id="node10" class="node">
<title>spectree_plugins_flask_plugin</title><style>.edge>path:hover{stroke-width:8}</style>
<ellipse fill="#883a3a" stroke="black" cx="627.84" cy="-172.99" rx="53.07" ry="28.98"/>
<text text-anchor="middle" x="627.84" y="-181.49" font-family="Helvetica,sans-Serif" font-size="10.00" fill="#ffffff">spectree.</text>
<text text-anchor="middle" x="627.84" y="-170.49" font-family="Helvetica,sans-Serif" font-size="10.00" fill="#ffffff">plugins.</text>
<text text-anchor="middle" x="627.84" y="-159.49" font-family="Helvetica,sans-Serif" font-size="10.00" fill="#ffffff">flask_plugin</text>
</g>
<!-- spectree__pydantic&#45;&gt;spectree_plugins_flask_plugin -->
<g id="edge6" class="edge">
<title>spectree__pydantic&#45;&gt;spectree_plugins_flask_plugin</title><style>.edge>path:hover{stroke-width:8}</style>
<path fill="none" stroke="black" d="M669.84,-450.62C670.66,-416.66 666.11,-407.96 669.84,-374.2"/>
</g>
<!-- spectree_plugins_quart_plugin -->
<g id="node11" class="node">
<title>spectree_plugins_quart_plugin</title><style>.edge>path:hover{stroke-width:8}</style>
<ellipse fill="#883a3a" stroke="black" cx="346.84" cy="-172.99" rx="54.39" ry="28.98"/>
<text text-anchor="middle" x="346.84" y="-181.49" font-family="Helvetica,sans-Serif" font-size="10.00" fill="#ffffff">spectree.</text>
<text text-anchor="middle" x="346.84" y="-170.49" font-family="Helvetica,sans-Serif" font-size="10.00" fill="#ffffff">plugins.</text>
<text text-anchor="middle" x="346.84" y="-159.49" font-family="Helvetica,sans-Serif" font-size="10.00" fill="#ffffff">quart_plugin</text>
</g>
<!-- spectree__pydantic&#45;&gt;spectree_plugins_quart_plugin -->
<g id="edge7" class="edge">
<title>spectree__pydantic&#45;&gt;spectree_plugins_quart_plugin</title><style>.edge>path:hover{stroke-width:8}</style>
<path fill="none" stroke="black" d="M229.84,-529.05C198.36,-417.8 410.89,-562.53 483.84,-472.84 506.23,-445.31 458.06,-320.33 411.84,-259.48"/>
</g>
<!-- spectree_plugins_starlette_plugin -->
<g id="node12" class="node">
<title>spectree_plugins_starlette_plugin</title><style>.edge>path:hover{stroke-width:8}</style>
<ellipse fill="#883a3a" stroke="black" cx="208.84" cy="-172.99" rx="65.52" ry="28.98"/>
<text text-anchor="middle" x="208.84" y="-181.49" font-family="Helvetica,sans-Serif" font-size="10.00" fill="#ffffff">spectree.</text>
<text text-anchor="middle" x="208.84" y="-170.49" font-family="Helvetica,sans-Serif" font-size="10.00" fill="#ffffff">plugins.</text>
<text text-anchor="middle" x="208.84" y="-159.49" font-family="Helvetica,sans-Serif" font-size="10.00" fill="#ffffff">starlette_plugin</text>
</g>
<!-- spectree__pydantic&#45;&gt;spectree_plugins_starlette_plugin -->
<g id="edge8" class="edge">
<title>spectree__pydantic&#45;&gt;spectree_plugins_starlette_plugin</title><style>.edge>path:hover{stroke-width:8}</style>
<path fill="none" stroke="black" d="M229.84,-529.05C207.7,-455.65 153.84,-450.86 153.84,-374.2 153.84,-374.2 153.84,-374.2 153.84,-314.98 153.84,-277.33 171.07,-237.65 186.25,-210.02"/>
<polygon fill="#f91010" stroke="black" points="189.4,-211.55 191.29,-201.13 183.31,-208.1 189.4,-211.55"/>
</g>
<!-- spectree_response -->
<g id="node13" class="node">
<title>spectree_response</title><style>.edge>path:hover{stroke-width:8}</style>
<ellipse fill="#e50505" stroke="black" cx="559.84" cy="-373.2" rx="43.68" ry="21.43"/>
<text text-anchor="middle" x="559.84" y="-376.2" font-family="Helvetica,sans-Serif" font-size="10.00" fill="#ffffff">spectree.</text>
<text text-anchor="middle" x="559.84" y="-365.2" font-family="Helvetica,sans-Serif" font-size="10.00" fill="#ffffff">response</text>
</g>
<!-- spectree__pydantic&#45;&gt;spectree_response -->
<g id="edge9" class="edge">
<title>spectree__pydantic&#45;&gt;spectree_response</title><style>.edge>path:hover{stroke-width:8}</style>
<path fill="none" stroke="black" d="M408.59,-604.99C498.19,-597.55 689.5,-568.11 669.84,-452.62"/>
<path fill="none" stroke="black" d="M669.84,-450.62C670.09,-432.95 631.27,-409.32 599.68,-393.04"/>
<polygon fill="#f91010" stroke="black" points="601.08,-389.83 590.58,-388.45 597.93,-396.08 601.08,-389.83"/>
</g>
<!-- spectree_utils -->
<g id="node15" class="node">
<title>spectree_utils</title><style>.edge>path:hover{stroke-width:8}</style>
<ellipse fill="#e90c0c" stroke="black" cx="425.84" cy="-451.62" rx="48.72" ry="18"/>
<text text-anchor="middle" x="425.84" y="-449.12" font-family="Helvetica,sans-Serif" font-size="10.00" fill="#ffffff">spectree.utils</text>
</g>
<!-- spectree__pydantic&#45;&gt;spectree_utils -->
<g id="edge10" class="edge">
<title>spectree__pydantic&#45;&gt;spectree_utils</title><style>.edge>path:hover{stroke-width:8}</style>
<path fill="none" stroke="black" d="M229.84,-529.05C228.72,-525.13 324.63,-489.45 382.68,-468.26"/>
<polygon fill="#f91010" stroke="black" points="384.15,-471.45 392.35,-464.73 381.75,-464.87 384.15,-471.45"/>
</g>
<!-- spectree__types&#45;&gt;spectree_plugins_base -->
<g id="edge11" class="edge">
<title>spectree__types&#45;&gt;spectree_plugins_base</title><style>.edge>path:hover{stroke-width:8}</style>
<path fill="none" stroke="black" d="M487.84,-314.98C485.39,-306.88 484.62,-297.8 484.67,-289.36"/>
<polygon fill="#f90606" stroke="black" points="488.17,-289.29 485.1,-279.15 481.18,-289 488.17,-289.29"/>
</g>
<!-- spectree__types&#45;&gt;spectree_plugins_falcon_plugin -->
<g id="edge12" class="edge">
<title>spectree__types&#45;&gt;spectree_plugins_falcon_plugin</title><style>.edge>path:hover{stroke-width:8}</style>
<path fill="none" stroke="black" d="M631.84,-450.62C654.89,-408.63 686.01,-416.83 707.84,-374.2"/>
<path fill="none" stroke="black" d="M707.84,-372.2C735.93,-317.35 763.73,-251.44 780.09,-211.15"/>
<polygon fill="#f90606" stroke="black" points="783.39,-212.31 783.89,-201.72 776.9,-209.69 783.39,-212.31"/>
</g>
<!-- spectree__types&#45;&gt;spectree_plugins_flask_plugin -->
<g id="edge13" class="edge">
<title>spectree__types&#45;&gt;spectree_plugins_flask_plugin</title><style>.edge>path:hover{stroke-width:8}</style>
<path fill="none" stroke="black" d="M631.84,-450.62C650.09,-417.37 665.34,-411.86 669.84,-374.2"/>
<path fill="none" stroke="black" d="M669.84,-372.2C676.65,-315.21 657.71,-250.34 643.09,-210.79"/>
<polygon fill="#f90606" stroke="black" points="646.31,-209.41 639.48,-201.31 639.76,-211.9 646.31,-209.41"/>
</g>
<!-- spectree__types&#45;&gt;spectree_plugins_quart_plugin -->
<g id="edge14" class="edge">
<title>spectree__types&#45;&gt;spectree_plugins_quart_plugin</title><style>.edge>path:hover{stroke-width:8}</style>
<path fill="none" stroke="black" d="M406.03,-524.25C476.02,-515.2 610.6,-492.84 631.84,-452.62"/>
<path fill="none" stroke="black" d="M631.84,-450.62C660.29,-396.76 545.75,-441.28 506.84,-394.41 483.93,-366.82 498.23,-350.31 487.84,-315.98"/>
<path fill="none" stroke="black" d="M487.84,-314.98C472.01,-276.27 437.14,-292.79 411.84,-259.48"/>
</g>
<!-- spectree__types&#45;&gt;spectree_plugins_starlette_plugin -->
<g id="edge15" class="edge">
<title>spectree__types&#45;&gt;spectree_plugins_starlette_plugin</title><style>.edge>path:hover{stroke-width:8}</style>
<path fill="none" stroke="black" d="M327.13,-518.17C302.44,-509.3 270.57,-494.64 248.84,-472.84 221.5,-445.4 219.5,-432.16 210.84,-394.41 206.62,-376.03 202.35,-368.82 210.84,-351.98 241.95,-290.27 373.65,-317.34 335.84,-259.48"/>
<path fill="none" stroke="black" d="M335.84,-257.48C321.98,-229.71 294.04,-209.83 267.89,-196.46"/>
<polygon fill="#f90606" stroke="black" points="269.27,-193.23 258.74,-192 266.2,-199.52 269.27,-193.23"/>
</g>
<!-- spectree__types&#45;&gt;spectree_response -->
<g id="edge16" class="edge">
<title>spectree__types&#45;&gt;spectree_response</title><style>.edge>path:hover{stroke-width:8}</style>
<path fill="none" stroke="black" d="M631.84,-450.62C643.62,-428.32 621.64,-407.81 598.96,-393.66"/>
<polygon fill="#f90606" stroke="black" points="600.69,-390.62 590.3,-388.56 597.14,-396.65 600.69,-390.62"/>
</g>
<!-- spectree_spec -->
<g id="node14" class="node">
<title>spectree_spec</title><style>.edge>path:hover{stroke-width:8}</style>
<polygon fill="blue" stroke="black" points="118.84,-108 34.84,-108 34.84,-72 118.84,-72 118.84,-108"/>
<text text-anchor="middle" x="76.84" y="-87.5" font-family="Helvetica,sans-Serif" font-size="10.00" fill="white">spectree.spec</text>
</g>
<!-- spectree__types&#45;&gt;spectree_spec -->
<g id="edge17" class="edge">
<title>spectree__types&#45;&gt;spectree_spec</title><style>.edge>path:hover{stroke-width:8}</style>
<path fill="none" stroke="black" d="M322.61,-522.66C252.09,-509.12 115.84,-470.51 115.84,-374.2 115.84,-374.2 115.84,-374.2 115.84,-314.98 115.84,-252.32 150.15,-225.76 114.84,-173.99"/>
<path fill="none" stroke="black" d="M114.84,-171.99C103.02,-155.14 93.26,-134.04 86.59,-117.6"/>
<polygon fill="#f90606" stroke="black" points="89.75,-116.08 82.84,-108.04 83.23,-118.63 89.75,-116.08"/>
</g>
<!-- spectree__types&#45;&gt;spectree_utils -->
<g id="edge18" class="edge">
<title>spectree__types&#45;&gt;spectree_utils</title><style>.edge>path:hover{stroke-width:8}</style>
<path fill="none" stroke="black" d="M379.17,-510.16C387.34,-500.08 397.48,-487.58 406.23,-476.8"/>
<polygon fill="#f90606" stroke="black" points="409,-478.94 412.58,-468.97 403.56,-474.53 409,-478.94"/>
</g>
<!-- spectree_config&#45;&gt;spectree_plugins_base -->
<g id="edge19" class="edge">
<title>spectree_config&#45;&gt;spectree_plugins_base</title><style>.edge>path:hover{stroke-width:8}</style>
<path fill="none" stroke="black" d="M293.59,-357.23C333.14,-337.33 403.2,-302.07 447.49,-279.79"/>
<polygon fill="#bc2f2f" stroke="black" points="449.17,-282.86 456.53,-275.24 446.02,-276.61 449.17,-282.86"/>
</g>
<!-- spectree_config&#45;&gt;spectree_spec -->
<g id="edge20" class="edge">
<title>spectree_config&#45;&gt;spectree_spec</title><style>.edge>path:hover{stroke-width:8}</style>
<path fill="none" stroke="black" d="M274.54,-352.53C286.36,-327.81 301,-285.47 278.84,-259.48"/>
<path fill="none" stroke="black" d="M278.84,-257.48C229.14,-209.62 187.93,-244.83 133.84,-201.98 122.06,-192.65 123.31,-186.41 114.84,-173.99"/>
</g>
<!-- spectree_models&#45;&gt;spectree -->
<g id="edge21" class="edge">
<title>spectree_models&#45;&gt;spectree</title><style>.edge>path:hover{stroke-width:8}</style>
<path fill="none" stroke="black" d="M50.53,-430.66C64.93,-384.89 96.06,-269.04 76.84,-173.99"/>
<path fill="none" stroke="black" d="M76.84,-171.99C68.39,-136.62 37.85,-142.33 25.84,-108 20.56,-92.9 19.86,-86.84 25.84,-72 30.19,-61.21 37.9,-51.39 46.03,-43.21"/>
<polygon fill="#d92626" stroke="black" points="48.63,-45.57 53.54,-36.18 43.85,-40.46 48.63,-45.57"/>
</g>
<!-- spectree_models&#45;&gt;spectree_config -->
<g id="edge22" class="edge">
<title>spectree_models&#45;&gt;spectree_config</title><style>.edge>path:hover{stroke-width:8}</style>
<path fill="none" stroke="black" d="M78.7,-438.51C116.84,-425.26 178.06,-404 219.56,-389.58"/>
<polygon fill="#d92626" stroke="black" points="220.85,-392.84 229.14,-386.25 218.55,-386.22 220.85,-392.84"/>
</g>
<!-- spectree_models&#45;&gt;spectree_spec -->
<g id="edge23" class="edge">
<title>spectree_models&#45;&gt;spectree_spec</title><style>.edge>path:hover{stroke-width:8}</style>
<path fill="none" stroke="black" d="M76.84,-171.99C73.29,-154.41 73.27,-134.24 74.16,-118.43"/>
<polygon fill="#d92626" stroke="black" points="77.66,-118.48 74.88,-108.26 70.68,-117.99 77.66,-118.48"/>
</g>
<!-- spectree_page -->
<g id="node6" class="node">
<title>spectree_page</title><style>.edge>path:hover{stroke-width:8}</style>
<ellipse fill="#c24747" stroke="black" cx="308.84" cy="-451.62" rx="50.75" ry="18"/>
<text text-anchor="middle" x="308.84" y="-449.12" font-family="Helvetica,sans-Serif" font-size="10.00" fill="#ffffff">spectree.page</text>
</g>
<!-- spectree_page&#45;&gt;spectree_config -->
<g id="edge24" class="edge">
<title>spectree_page&#45;&gt;spectree_config</title><style>.edge>path:hover{stroke-width:8}</style>
<path fill="none" stroke="black" d="M298.85,-433.66C293.49,-424.55 286.73,-413.06 280.58,-402.63"/>
<polygon fill="#c24747" stroke="black" points="283.48,-400.65 275.39,-393.81 277.45,-404.2 283.48,-400.65"/>
</g>
<!-- spectree_plugins -->
<g id="node7" class="node">
<title>spectree_plugins</title><style>.edge>path:hover{stroke-width:8}</style>
<polygon fill="blue" stroke="black" points="518.84,-190.99 456.84,-190.99 456.84,-154.99 518.84,-154.99 518.84,-190.99"/>
<text text-anchor="middle" x="487.84" y="-175.99" font-family="Helvetica,sans-Serif" font-size="10.00" fill="white">spectree.</text>
<text text-anchor="middle" x="487.84" y="-164.99" font-family="Helvetica,sans-Serif" font-size="10.00" fill="white">plugins</text>
</g>
<!-- spectree_plugins&#45;&gt;spectree_spec -->
<g id="edge25" class="edge">
<title>spectree_plugins&#45;&gt;spectree_spec</title><style>.edge>path:hover{stroke-width:8}</style>
<path fill="none" stroke="black" d="M464.5,-154.95C457.79,-150.76 450.27,-146.71 442.84,-144 336.07,-105.01 201.93,-94.6 129.34,-91.89"/>
<polygon fill="blue" stroke="black" points="129.2,-88.38 119.09,-91.54 128.97,-95.38 129.2,-88.38"/>
</g>
<!-- spectree_plugins_base&#45;&gt;spectree_plugins -->
<g id="edge26" class="edge">
<title>spectree_plugins_base&#45;&gt;spectree_plugins</title><style>.edge>path:hover{stroke-width:8}</style>
<path fill="none" stroke="black" d="M487.84,-237.7C487.84,-226.84 487.84,-213.22 487.84,-201.36"/>
<polygon fill="blue" stroke="black" points="491.34,-201.09 487.84,-191.09 484.34,-201.09 491.34,-201.09"/>
</g>
<!-- spectree_plugins_base&#45;&gt;spectree_plugins_falcon_plugin -->
<g id="edge27" class="edge">
<title>spectree_plugins_base&#45;&gt;spectree_plugins_falcon_plugin</title><style>.edge>path:hover{stroke-width:8}</style>
<path fill="none" stroke="black" d="M518.97,-249.02C569.5,-235.28 670.23,-207.88 734.99,-190.27"/>
<polygon fill="blue" stroke="black" points="735.93,-193.64 744.66,-187.64 734.1,-186.88 735.93,-193.64"/>
</g>
<!-- spectree_plugins_base&#45;&gt;spectree_plugins_flask_plugin -->
<g id="edge28" class="edge">
<title>spectree_plugins_base&#45;&gt;spectree_plugins_flask_plugin</title><style>.edge>path:hover{stroke-width:8}</style>
<path fill="none" stroke="black" d="M518.91,-238.95C538.08,-227.52 562.97,-212.68 584.11,-200.07"/>
<polygon fill="blue" stroke="black" points="586.12,-202.95 592.92,-194.82 582.54,-196.93 586.12,-202.95"/>
</g>
<!-- spectree_plugins_base&#45;&gt;spectree_plugins_quart_plugin -->
<g id="edge29" class="edge">
<title>spectree_plugins_base&#45;&gt;spectree_plugins_quart_plugin</title><style>.edge>path:hover{stroke-width:8}</style>
<path fill="none" stroke="black" d="M456.55,-238.95C437.38,-227.6 412.54,-212.9 391.35,-200.35"/>
<polygon fill="blue" stroke="black" points="392.91,-197.2 382.52,-195.12 389.34,-203.22 392.91,-197.2"/>
</g>
<!-- spectree_plugins_base&#45;&gt;spectree_plugins_starlette_plugin -->
<g id="edge30" class="edge">
<title>spectree_plugins_base&#45;&gt;spectree_plugins_starlette_plugin</title><style>.edge>path:hover{stroke-width:8}</style>
<path fill="none" stroke="black" d="M456.82,-249.99C416.61,-240.05 344.46,-221.5 283.84,-201.98 278.33,-200.21 272.63,-198.27 266.95,-196.27"/>
<polygon fill="blue" stroke="black" points="268.02,-192.94 257.43,-192.86 265.66,-199.53 268.02,-192.94"/>
</g>
<!-- spectree_response&#45;&gt;spectree -->
<g id="edge31" class="edge">
<title>spectree_response&#45;&gt;spectree</title><style>.edge>path:hover{stroke-width:8}</style>
<path fill="none" stroke="black" d="M584.84,-314.98C579.99,-254.8 665.4,-301.42 708.84,-259.48"/>
<path fill="none" stroke="black" d="M708.84,-257.48C745.63,-221.96 725.36,-180.79 689.84,-144 609.58,-60.86 239.19,-29.57 116.46,-21.37"/>
<polygon fill="#e50505" stroke="black" points="116.58,-17.88 106.38,-20.72 116.13,-24.86 116.58,-17.88"/>
</g>
<!-- spectree_response&#45;&gt;spectree_plugins_base -->
<g id="edge32" class="edge">
<title>spectree_response&#45;&gt;spectree_plugins_base</title><style>.edge>path:hover{stroke-width:8}</style>
<path fill="none" stroke="black" d="M584.84,-314.98C582.68,-288.18 554.43,-274.13 528.97,-266.88"/>
<polygon fill="#e50505" stroke="black" points="529.6,-263.43 519.04,-264.34 527.86,-270.21 529.6,-263.43"/>
</g>
<!-- spectree_response&#45;&gt;spectree_plugins_falcon_plugin -->
<g id="edge33" class="edge">
<title>spectree_response&#45;&gt;spectree_plugins_falcon_plugin</title><style>.edge>path:hover{stroke-width:8}</style>
<path fill="none" stroke="black" d="M708.84,-257.48C726.21,-240.71 745.5,-222 761.4,-206.54"/>
<polygon fill="#e50505" stroke="black" points="764.18,-208.72 768.91,-199.24 759.3,-203.7 764.18,-208.72"/>
</g>
<!-- spectree_response&#45;&gt;spectree_plugins_flask_plugin -->
<g id="edge34" class="edge">
<title>spectree_response&#45;&gt;spectree_plugins_flask_plugin</title><style>.edge>path:hover{stroke-width:8}</style>
<path fill="none" stroke="black" d="M584.84,-257.48C585.1,-240.07 592.63,-222.65 601.31,-208.26"/>
<polygon fill="#e50505" stroke="black" points="604.34,-210.02 606.82,-199.72 598.46,-206.23 604.34,-210.02"/>
</g>
<!-- spectree_response&#45;&gt;spectree_plugins_quart_plugin -->
<g id="edge35" class="edge">
<title>spectree_response&#45;&gt;spectree_plugins_quart_plugin</title><style>.edge>path:hover{stroke-width:8}</style>
<path fill="none" stroke="black" d="M573.93,-353.05C580.17,-342.57 585.9,-329.08 584.84,-315.98"/>
<path fill="none" stroke="black" d="M584.84,-314.98C579.78,-252.23 506.38,-302.14 447.84,-278.98 430.92,-272.29 422.85,-273.97 411.84,-259.48"/>
</g>
<!-- spectree_response&#45;&gt;spectree_plugins_starlette_plugin -->
<g id="edge36" class="edge">
<title>spectree_response&#45;&gt;spectree_plugins_starlette_plugin</title><style>.edge>path:hover{stroke-width:8}</style>
<path fill="none" stroke="black" d="M521.04,-362.89C471.02,-348.9 384.68,-317.67 335.84,-259.48"/>
</g>
<!-- spectree_response&#45;&gt;spectree_spec -->
<g id="edge37" class="edge">
<title>spectree_response&#45;&gt;spectree_spec</title><style>.edge>path:hover{stroke-width:8}</style>
<path fill="none" stroke="black" d="M584.84,-314.98C582.86,-290.4 584.48,-284.15 584.84,-259.48"/>
<path fill="none" stroke="black" d="M584.84,-257.48C585.05,-243.37 539.4,-152.1 527.84,-144 464.57,-99.67 233.87,-92.15 129.16,-91.06"/>
<polygon fill="#e50505" stroke="black" points="129.16,-87.56 119.13,-90.98 129.1,-94.56 129.16,-87.56"/>
</g>
<!-- spectree_spec&#45;&gt;spectree -->
<g id="edge38" class="edge">
<title>spectree_spec&#45;&gt;spectree</title><style>.edge>path:hover{stroke-width:8}</style>
<path fill="none" stroke="black" d="M76.84,-71.7C76.84,-63.98 76.84,-54.71 76.84,-46.11"/>
<polygon fill="blue" stroke="black" points="80.34,-46.1 76.84,-36.1 73.34,-46.1 80.34,-46.1"/>
</g>
<!-- spectree_spec&#45;&gt;spectree_plugins_base -->
<g id="edge39" class="edge">
<title>spectree_spec&#45;&gt;spectree_plugins_base</title><style>.edge>path:hover{stroke-width:8}</style>
<path fill="none" stroke="black" d="M119.1,-93.49C197.66,-98.81 362.47,-113.35 409.84,-144 435.71,-160.74 430.38,-176.59 447.84,-201.98 454.05,-211.01 460.98,-220.74 467.3,-229.49"/>
<polygon fill="blue" stroke="black" points="464.66,-231.82 473.37,-237.86 470.33,-227.71 464.66,-231.82"/>
</g>
<!-- spectree_utils&#45;&gt;spectree_plugins_flask_plugin -->
<g id="edge40" class="edge">
<title>spectree_utils&#45;&gt;spectree_plugins_flask_plugin</title><style>.edge>path:hover{stroke-width:8}</style>
<path fill="none" stroke="black" d="M436.24,-433.84C459.14,-397.23 516.24,-307.88 570.84,-237.98 579.01,-227.53 588.4,-216.59 597.17,-206.78"/>
<polygon fill="#e90c0c" stroke="black" points="599.93,-208.95 604.04,-199.18 594.74,-204.25 599.93,-208.95"/>
</g>
<!-- spectree_utils&#45;&gt;spectree_plugins_quart_plugin -->
<g id="edge41" class="edge">
<title>spectree_utils&#45;&gt;spectree_plugins_quart_plugin</title><style>.edge>path:hover{stroke-width:8}</style>
<path fill="none" stroke="black" d="M335.84,-314.98C338.15,-273.22 437.14,-292.79 411.84,-259.48"/>
<path fill="none" stroke="black" d="M411.84,-257.48C399.47,-241.19 385.56,-223.27 373.79,-208.22"/>
<polygon fill="#e90c0c" stroke="black" points="376.42,-205.9 367.49,-200.19 370.91,-210.22 376.42,-205.9"/>
</g>
<!-- spectree_utils&#45;&gt;spectree_plugins_starlette_plugin -->
<g id="edge42" class="edge">
<title>spectree_utils&#45;&gt;spectree_plugins_starlette_plugin</title><style>.edge>path:hover{stroke-width:8}</style>
<path fill="none" stroke="black" d="M335.84,-314.98C337.2,-290.35 349.33,-280.13 335.84,-259.48"/>
</g>
<!-- spectree_utils&#45;&gt;spectree_response -->
<g id="edge43" class="edge">
<title>spectree_utils&#45;&gt;spectree_response</title><style>.edge>path:hover{stroke-width:8}</style>
<path fill="none" stroke="black" d="M451.36,-436.07C471.74,-424.44 500.56,-408.01 523.37,-395"/>
<polygon fill="#e90c0c" stroke="black" points="525.15,-398.01 532.11,-390.01 521.69,-391.93 525.15,-398.01"/>
</g>
<!-- spectree_utils&#45;&gt;spectree_spec -->
<g id="edge44" class="edge">
<title>spectree_utils&#45;&gt;spectree_spec</title><style>.edge>path:hover{stroke-width:8}</style>
<path fill="none" stroke="black" d="M405.56,-435.05C378.17,-412.04 333.06,-366.23 335.84,-315.98"/>
<path fill="none" stroke="black" d="M335.84,-314.98C333.02,-279.74 304.31,-284.01 278.84,-259.48"/>
</g>
</g>
</svg>
